<?xml version="1.0" encoding="UTF-8"?>
<svg id="a" data-name="Layer 1" xmlns="http://www.w3.org/2000/svg" viewBox="0 0 180 180">
  <defs>
    <style>
      .h {
        fill: #231f20;
      }
    </style>
  </defs>
  <path class="h" d="M113.73,91.13c10.14-6.73,16.84-18.24,16.84-31.29,0-20.7-16.84-37.55-37.55-37.55s-37.55,16.84-37.55,37.55c0,13.05,6.7,24.56,16.84,31.29-22.94,8.46-39.37,30.48-39.37,56.32v5.01h120.15v-5.01c0-25.84-16.43-47.86-39.37-56.32ZM65.49,59.84c0-15.18,12.35-27.53,27.53-27.53s27.54,12.35,27.54,27.53-12.35,27.53-27.54,27.53-27.53-12.35-27.53-27.53ZM43.21,142.45c2.52-25.26,23.9-45.06,49.81-45.06s47.3,19.8,49.81,45.06H43.21Z"/>
</svg>