<?xml version="1.0" encoding="UTF-8"?>
<svg id="a" data-name="Layer 1" xmlns="http://www.w3.org/2000/svg" viewBox="0 0 180 180">
  <defs>
    <style>
      .h {
        fill: #050505;
      }
    </style>
  </defs>
  <path class="h" d="M28.03,147.04h75.01c5.48,5.34,12.96,8.63,21.2,8.63,16.78,0,30.42-13.65,30.42-30.42,0-11.11-5.99-20.84-14.91-26.15v-63.61c0-1.49-1.2-2.69-2.69-2.69H54.84s-.06,0-.09,0c-.06,0-.11,0-.17,0-.04,0-.08.01-.12.02-.05,0-.09.01-.14.02-.04,0-.09.02-.13.03-.04.01-.09.02-.13.03-.04.01-.08.03-.12.04-.04.01-.08.03-.12.05-.04.02-.08.03-.12.05-.04.02-.08.04-.12.06-.04.02-.07.04-.11.06-.04.02-.08.05-.12.07-.04.02-.07.05-.11.08-.03.03-.07.05-.1.08-.04.03-.08.07-.12.11-.02.02-.05.04-.07.06l-26.81,26.35s0,0,0,0c-.05.04-.09.09-.13.14-.02.02-.04.04-.05.06-.05.06-.1.13-.15.19-.03.05-.06.1-.1.15-.02.03-.04.06-.05.09-.02.04-.04.09-.06.13-.02.03-.03.07-.05.1-.02.04-.03.08-.05.13-.01.04-.03.08-.04.12-.01.04-.02.09-.03.13-.01.04-.02.08-.03.13-.02.09-.03.17-.04.26,0,.02,0,.04,0,.06,0,.07-.01.14-.01.21,0,0,0,0,0,.01v82.51c0,1.49,1.2,2.69,2.69,2.69ZM30.72,141.66v-77.12h25.52v41.54l7.1-4.93,5.45,4.93,5.34-5.13,8.31,5.13v-41.54h25.12v35.29c-8.27,5.44-13.74,14.8-13.74,25.43,0,6.04,1.78,11.67,4.82,16.41H30.72ZM111.44,146.76h0c-1.37-.82-2.66-1.77-3.84-2.82-.8-.71-1.55-1.47-2.25-2.28-3.82-4.4-6.15-10.13-6.15-16.41,0-7.41,3.23-14.07,8.36-18.66,1.62-1.45,3.43-2.69,5.38-3.68,3.4-1.72,7.23-2.7,11.3-2.7,3.61,0,7.03.77,10.14,2.15,1.94.86,3.74,1.96,5.38,3.26,5.8,4.59,9.52,11.68,9.52,19.63,0,13.81-11.23,25.04-25.04,25.04-4.67,0-9.05-1.29-12.8-3.53ZM124.24,94.83c-3.99,0-7.8.78-11.3,2.18v-34.06l21.43-21.7v55.32c-3.17-1.12-6.58-1.74-10.14-1.74ZM109.13,59.15h-23.5l20.56-20.97h23.65l-20.71,20.97ZM55.94,38.18h23.84l-21.29,20.97h-23.89l21.34-20.97Z"/>
  <path class="h" d="M135.83,122.99c-.2-.05-.4-.07-.61-.07h-9.73l-5.8-6.86-5.29-6.25c-.39-.46-.9-.76-1.45-.88-.8-.18-1.67,0-2.34.56-1.13.96-1.28,2.66-.32,3.79l2.66,3.14,9.24,10.92c.24.28.53.51.86.67.37.18.78.29,1.2.29h10.98c1.49,0,2.69-1.2,2.69-2.69,0-1.27-.89-2.34-2.08-2.62Z"/>
</svg>