<?xml version="1.0" encoding="UTF-8"?>
<svg id="b" data-name="Objects" xmlns="http://www.w3.org/2000/svg" viewBox="0 0 180 180">
  <path d="M123.36,25.73c-8.27-2.51-19.49-3.78-33.35-3.78s-25.09,1.27-33.36,3.78c-5.2,1.58-8.95,6.28-9.51,11.7h85.73c-.56-5.43-4.31-10.13-9.51-11.7Z"/>
  <path d="M57.15,50.11h25.81c.39,0,.7.31.7.7v23.47c0,.39-.31.7-.7.7h-25.82c-.39,0-.7-.31-.7-.7v-23.46c0-.39.32-.7.7-.7Z"/>
  <path d="M132.94,102.44v-61.72H47.06v61.72c0,10.74,8.74,19.47,19.48,19.47h.75l-16.45,32.9,6.46,3.23,4.2-8.4h57.01l4.2,8.4,6.46-3.23-16.45-32.9h.75c10.74,0,19.47-8.74,19.47-19.47ZM113.47,107.84c-4.27,0-7.74-3.47-7.74-7.74s3.47-7.74,7.74-7.74,7.74,3.47,7.74,7.74-3.47,7.74-7.74,7.74ZM93.05,50.81c0-2.2,1.79-3.99,3.99-3.99h25.81c2.2,0,3.99,1.79,3.99,3.99v23.47c0,2.2-1.79,3.99-3.99,3.99h-25.81c-2.2,0-3.99-1.79-3.99-3.99v-23.47ZM53.16,74.28v-23.47c0-2.2,1.79-3.99,3.99-3.99h25.81c2.2,0,3.99,1.79,3.99,3.99v23.47c0,2.2-1.79,3.99-3.99,3.99h-25.81c-2.2,0-3.99-1.79-3.99-3.99ZM58.79,100.09c0-4.27,3.47-7.74,7.74-7.74s7.74,3.47,7.74,7.74-3.47,7.74-7.74,7.74-7.74-3.47-7.74-7.74ZM65.11,142.42l3.5-7.01h42.78l3.5,7.01h-49.78ZM107.77,128.18h-35.55l3.13-6.27h29.28l3.13,6.27Z"/>
  <path d="M97.04,50.11h25.81c.39,0,.7.32.7.7v23.46c0,.39-.31.7-.7.7h-25.82c-.39,0-.7-.31-.7-.7v-23.46c0-.39.32-.7.7-.7Z"/>
</svg>