<?xml version="1.0" encoding="UTF-8"?>
<svg id="g" data-name="OBJECTS" xmlns="http://www.w3.org/2000/svg" viewBox="0 0 77.51 180.28">
  <path d="M2.38,68.04h72.43c.1,0,.2.08.3.08v13.56H2.38v-13.64Z"/>
  <path d="M-221.26,101.67h10v-9.09h35.46v9.09h10.91v-9.09h8.18v9.09h4.55v-9.09h8.18v9.09h10v-9.09h35.46v9.09h10.91v-9.09h8.18v9.09h4.55v-9.09h8.18v9.09h10v-9.09H-21.25v9.09h10.91v-9.09H-2.16v9.09H2.38v-9.09h8.18v9.09h10v-9.09h35.46v9.09h10.91v-9.09h8.18v9.09h4.55v-9.09h44.55v13.64h-5.33c-.99,3.41-4.13,5.91-7.86,5.91s-6.87-2.5-7.86-5.91h-3.84c-.99,3.41-4.13,5.91-7.86,5.91s-6.87-2.5-7.86-5.91h-8.51v3.64h-13.64v-3.64h-5.33c-.99,3.41-4.13,5.91-7.86,5.91s-6.87-2.5-7.86-5.91h-3.84c-.99,3.41-4.13,5.91-7.86,5.91s-6.87-2.5-7.86-5.91h-4.87v3.64H2.38v-3.64H-2.16v3.64h-13.64v-3.64h-5.33c-.99,3.41-4.13,5.91-7.86,5.91s-6.87-2.5-7.86-5.91h-3.84c-.99,3.41-4.13,5.91-7.86,5.91s-6.87-2.5-7.86-5.91h-4.87v3.64h-13.64v-3.64h-4.55v3.64h-13.64v-3.64h-5.33c-.99,3.41-4.13,5.91-7.86,5.91s-6.87-2.5-7.86-5.91h-3.84c-.99,3.41-4.13,5.91-7.86,5.91s-6.87-2.5-7.86-5.91h-4.87v3.64h-13.64v-3.64h-4.55v3.64h-13.64v-3.64h-5.33c-.99,3.41-4.13,5.91-7.86,5.91s-6.87-2.5-7.86-5.91h-3.84c-.99,3.41-4.13,5.91-7.86,5.91s-6.87-2.5-7.86-5.91h-4.87v3.64h-13.64v-17.27h8.18v9.09Z"/>
  <path d="M139.05,88.95H-229.44v-4.55H138.3l-.45-2.73h-58.18v-13.64h62.47c5.68,0,10.64,3.64,12.69,9.09h-9.25l2.73,19.09h10.02l2.7,16.36h-22.27l-.91-6.36h-3.64v-13.64h5.45l-.61-3.64Z"/>
</svg>