<?xml version="1.0" encoding="UTF-8"?>
<svg id="g" data-name="OBJECTS" xmlns="http://www.w3.org/2000/svg" viewBox="0 0 432.42 180">
  <path d="M179.08,65.21h-72.43c-.1,0-.2.08-.3.08v13.56h72.73v-13.64Z"/>
  <path d="M256.36,65.21h-72.43c-.1,0-.2.08-.3.08v13.56h72.73v-13.64Z"/>
  <path d="M333.63,65.21h-72.43c-.1,0-.2.08-.3.08v13.56h72.73v-13.64Z"/>
  <path d="M338.48,65.21c-.1,0-.2.08-.3.08v13.56h72.73v-13.64h-72.43Z"/>
  <path d="M402.72,98.85h-10v-9.09h-35.46v9.09h-10.91v-9.09h-8.18v9.09h-4.55v-9.09h-8.18v9.09h-10v-9.09h-35.46v9.09h-10.91v-9.09h-8.18v9.09h-4.55v-9.09h-8.18v9.09h-10v-9.09h-35.46v9.09h-10.91v-9.09h-8.18v9.09h-4.55v-9.09h-8.18v9.09h-10v-9.09h-35.46v9.09h-10.91v-9.09h-8.18v9.09h-4.55v-9.09h-44.55v13.64h5.33c.99,3.41,4.13,5.91,7.86,5.91s6.87-2.5,7.86-5.91h3.84c.99,3.41,4.13,5.91,7.86,5.91s6.87-2.5,7.86-5.91h8.51v3.64h13.64v-3.64h5.33c.99,3.41,4.13,5.91,7.86,5.91s6.87-2.5,7.86-5.91h3.84c.99,3.41,4.13,5.91,7.86,5.91s6.87-2.5,7.86-5.91h4.87v3.64h13.64v-3.64h4.55v3.64h13.64v-3.64h5.33c.99,3.41,4.13,5.91,7.86,5.91s6.87-2.5,7.86-5.91h3.84c.99,3.41,4.13,5.91,7.86,5.91s6.87-2.5,7.86-5.91h4.87v3.64h13.64v-3.64h4.55v3.64h13.64v-3.64h5.33c.99,3.41,4.13,5.91,7.86,5.91s6.87-2.5,7.86-5.91h3.84c.99,3.41,4.13,5.91,7.86,5.91s6.87-2.5,7.86-5.91h4.87v3.64h13.64v-3.64h4.55v3.64h13.64v-3.64h5.33c.99,3.41,4.13,5.91,7.86,5.91s6.87-2.5,7.86-5.91h3.84c.99,3.41,4.13,5.91,7.86,5.91s6.87-2.5,7.86-5.91h4.87v3.64h13.64v-17.27h-8.18v9.09Z"/>
  <path d="M42.41,86.12h368.5v-4.55H43.17l.45-2.73h58.18v-13.64h-62.47c-5.68,0-10.64,3.64-12.69,9.09h9.25l-2.73,19.09h-10.02l-2.7,16.36h22.27l.91-6.36h3.64v-13.64h-5.45l.61-3.64Z"/>
</svg>